<svg xmlns="http://www.w3.org/2000/svg" xmlns:xlink="http://www.w3.org/1999/xlink" width="500" zoomAndPan="magnify" viewBox="0 0 375 374.999991" height="500" preserveAspectRatio="xMidYMid meet" version="1.0"><defs><g/></defs><g fill="#ffffff" fill-opacity="1"><g transform="translate(141.691402, 263.999983)"><g><path d="M 49.28125 -75.90625 L 45.984375 -75.90625 L 60.71875 -38.0625 L 60.71875 0 L 2.421875 0 L 2.421875 -154 L 66.65625 -154 L 98.125 -81.84375 L 129.578125 -154 L 193.59375 -154 L 193.59375 0 L 135.515625 0 L 135.515625 -38.0625 L 150.265625 -75.90625 L 146.953125 -75.90625 L 124.953125 -19.359375 L 71.28125 -19.359375 Z M 49.28125 -75.90625 "/></g></g></g><g fill="#000000" fill-opacity="1"><g transform="translate(30.808596, 271.499907)"><g><path d="M 77.28125 -168 C 91.039062 -168 103.316406 -166.28125 114.109375 -162.84375 C 124.910156 -159.40625 133.390625 -154.003906 139.546875 -146.640625 C 145.710938 -139.273438 148.796875 -129.675781 148.796875 -117.84375 C 148.796875 -112.40625 147.753906 -107.082031 145.671875 -101.875 C 143.597656 -96.675781 140.320312 -92.238281 135.84375 -88.5625 C 143.675781 -85.039062 149.429688 -79.878906 153.109375 -73.078125 C 156.796875 -66.273438 158.640625 -59.035156 158.640625 -51.359375 C 158.640625 -39.035156 155.519531 -29.070312 149.28125 -21.46875 C 143.039062 -13.875 134.28125 -8.394531 123 -5.03125 C 111.71875 -1.675781 98.476562 0 83.28125 0 L 2.40625 0 L 2.40625 -168 Z M 82.3125 -107.515625 C 86.15625 -107.515625 88.992188 -108.4375 90.828125 -110.28125 C 92.671875 -112.125 93.59375 -114.203125 93.59375 -116.515625 C 93.59375 -118.835938 92.671875 -120.914062 90.828125 -122.75 C 88.992188 -124.59375 86.15625 -125.515625 82.3125 -125.515625 L 64.796875 -125.515625 L 64.796875 -45.84375 L 84.484375 -45.84375 C 88.484375 -45.84375 91.441406 -46.800781 93.359375 -48.71875 C 95.273438 -50.632812 96.234375 -52.832031 96.234375 -55.3125 C 96.234375 -57.800781 95.234375 -60.003906 93.234375 -61.921875 C 91.234375 -63.835938 88.234375 -64.796875 84.234375 -64.796875 L 68.875 -64.796875 L 68.875 -107.515625 Z M 82.3125 -107.515625 "/></g></g></g><g fill="#ffffff" fill-opacity="1"><g transform="translate(37.500002, 263.999906)"><g><path d="M 70.84375 -154 C 83.457031 -154 94.710938 -152.421875 104.609375 -149.265625 C 114.503906 -146.117188 122.273438 -141.171875 127.921875 -134.421875 C 133.578125 -127.671875 136.40625 -118.867188 136.40625 -108.015625 C 136.40625 -103.035156 135.453125 -98.160156 133.546875 -93.390625 C 131.640625 -88.617188 128.628906 -84.550781 124.515625 -81.1875 C 131.703125 -77.957031 136.984375 -73.222656 140.359375 -66.984375 C 143.734375 -60.753906 145.421875 -54.117188 145.421875 -47.078125 C 145.421875 -35.785156 142.5625 -26.65625 136.84375 -19.6875 C 131.125 -12.71875 123.09375 -7.691406 112.75 -4.609375 C 102.40625 -1.535156 90.269531 0 76.34375 0 L 2.203125 0 L 2.203125 -154 Z M 75.453125 -98.5625 C 78.972656 -98.5625 81.578125 -99.40625 83.265625 -101.09375 C 84.953125 -102.78125 85.796875 -104.6875 85.796875 -106.8125 C 85.796875 -108.9375 84.953125 -110.84375 83.265625 -112.53125 C 81.578125 -114.21875 78.972656 -115.0625 75.453125 -115.0625 L 59.40625 -115.0625 L 59.40625 -42.015625 L 77.4375 -42.015625 C 81.101562 -42.015625 83.816406 -42.894531 85.578125 -44.65625 C 87.335938 -46.414062 88.21875 -48.429688 88.21875 -50.703125 C 88.21875 -52.984375 87.300781 -55.003906 85.46875 -56.765625 C 83.632812 -58.523438 80.882812 -59.40625 77.21875 -59.40625 L 63.140625 -59.40625 L 63.140625 -98.5625 Z M 75.453125 -98.5625 "/></g></g></g></svg>